<?xml version="1.0" encoding="UTF-8" standalone="no"?>
<!-- Created with Inkscape (http://www.inkscape.org/) -->

<svg
   width="113.2398mm"
   height="69.912514mm"
   viewBox="0 0 113.2398 69.912514"
   version="1.1"
   id="svg1"
   xml:space="preserve"
   xmlns="http://www.w3.org/2000/svg"
   xmlns:svg="http://www.w3.org/2000/svg"><defs
     id="defs1" /><g
     id="layer1"
     transform="translate(-49.245694,-40.889052)"><g
       id="g1"
       transform="matrix(0.14358796,0,0,0.14358796,75.801489,40.889055)"><path
         style="fill:#656d78;stroke-width:0.683864"
         d="M 82.518458,0 C 66.427148,0 53.338,13.089148 53.338,29.180458 V 291.76286 c 0,4.0389 3.259294,7.30914 7.297508,7.30914 H 97.103216 V 0 Z"
         id="path1" /><path
         style="fill:#e6e9ed;stroke-width:0.683864"
         d="m 82.518458,269.87991 c -12.095495,0 -21.88295,9.80866 -21.88295,21.88295 0,12.0955 9.787455,21.88227 21.88295,21.88227 H 323.22407 v -43.76522 z"
         id="path2" /><path
         style="fill:#14b8a6;fill-opacity:1;stroke-width:0.683864"
         d="M 330.51063,7.2981918 C 330.51063,3.2695517 327.24108,0 323.22338,0 H 97.103216 v 14.590229 0 248.003121 0 14.59501 h 81.558254 144.56191 c 4.0177,0 7.28725,-3.26887 7.28725,-7.30845 v 0 z"
         id="path3" /><g
         id="g5"
         transform="matrix(0.68386355,0,0,0.68386355,16.862086,0)">
	<path
   style="fill:#ccd1d9"
   d="m 192.004,437.327 h -85.341 c -5.875,0 -10.656,-4.781 -10.656,-10.688 0,-5.875 4.781,-10.656 10.656,-10.656 h 85.341 c 5.89,0 10.655,4.781 10.655,10.656 0,5.907 -4.765,10.688 -10.655,10.688 z"
   id="path4" />
	<path
   style="fill:#ccd1d9"
   d="m 362.646,415.983 c -5.875,0 -10.655,4.781 -10.655,10.656 0,5.906 4.78,10.688 10.655,10.688 h 85.34 v -21.344 z"
   id="path5" />
</g><g
         id="g10"
         transform="matrix(0.68386355,0,0,0.68386355,16.862086,0)">
	<path
   style="fill:#434a54"
   d="m 64.009,85.332 c 5.891,0 10.656,-4.773 10.656,-10.663 0,-5.89 -4.765,-10.671 -10.656,-10.671 H 53.338 v 21.334 z"
   id="path6" />
	<path
   style="fill:#434a54"
   d="m 64.009,149.33 c 5.891,0 10.656,-4.773 10.656,-10.664 0,-5.891 -4.766,-10.671 -10.656,-10.671 H 53.338 v 21.335 z"
   id="path7" />
	<path
   style="fill:#434a54"
   d="m 64.009,213.327 c 5.891,0 10.656,-4.773 10.656,-10.664 0,-5.891 -4.766,-10.671 -10.656,-10.671 H 53.338 v 21.335 z"
   id="path8" />
	<path
   style="fill:#434a54"
   d="m 64.009,277.333 c 5.891,0 10.656,-4.781 10.656,-10.679 0,-5.891 -4.766,-10.672 -10.656,-10.672 H 53.338 v 21.351 z"
   id="path9" />
	<path
   style="fill:#434a54"
   d="m 64.009,341.331 c 5.891,0 10.656,-4.781 10.656,-10.688 0,-5.874 -4.766,-10.655 -10.656,-10.655 H 53.338 v 21.343 z"
   id="path10" />
</g><path
         style="fill:#14b8a6;fill-opacity:1;stroke-width:0.683864"
         d="m 330.51063,313.64513 c 0,-4.01702 -3.26955,-7.28657 -7.28725,-7.28657 H 178.66147 97.103216 v 14.5957 H 323.22338 c 4.0177,0 7.28725,-3.26955 7.28725,-7.30913 z"
         id="path11" /><path
         style="fill:#656d78;stroke-width:0.683864"
         d="M 97.103216,306.35856 H 82.518458 c -8.045655,0 -14.595016,-6.5391 -14.595016,-14.5957 0,-8.03539 6.550045,-14.5745 14.595016,-14.5745 H 97.1039 V 262.59335 H 82.518458 c -16.09131,0 -29.180458,13.07752 -29.180458,29.16951 0,16.09131 13.089148,29.1914 29.180458,29.1914 H 97.1039 Z"
         id="path12" /><path
         style="fill:#ffce54;stroke-width:0.683864"
         d="m 140.86912,291.76286 h -7.29751 -29.1702 -7.29751 -7.298192 v 51.07435 c 0,2.32924 1.132478,4.5306 3.034986,5.91953 1.901825,1.36772 4.348689,1.73017 6.571245,0.98339 l 19.574911,-6.5179 19.57491,6.5179 c 0.7584,0.25645 1.52775,0.38433 2.30804,0.38433 1.50655,0 3.00284,-0.4705 4.2632,-1.36772 1.90183,-1.38893 3.03431,-3.59029 3.03431,-5.91953 v -51.07435 z"
         id="path13" /><path
         style="fill:#f6bb42;stroke-width:0.683864"
         d="m 206.52275,204.25363 c -4.03343,0 -7.30366,-3.26955 -7.30366,-7.30845 V 65.653637 c 0,-4.028641 3.26955,-7.292721 7.30366,-7.292721 4.0177,0 7.28725,3.26408 7.28725,7.292721 V 196.94518 c 0,4.03822 -3.26955,7.30845 -7.28725,7.30845 z"
         id="path14" /><path
         style="fill:#434a54;stroke-width:0.683864"
         d="m 250.28865,204.25363 h -87.53727 c -4.02864,0 -7.28725,-3.26955 -7.28725,-7.30845 0,-4.0177 3.2593,-7.28725 7.28725,-7.28725 h 87.53659 c 4.0177,0 7.28725,3.26955 7.28725,7.28725 6.8e-4,4.03822 -3.26887,7.30845 -7.28657,7.30845 z"
         id="path15" /><g
         id="g17"
         transform="matrix(0.68386355,0,0,0.68386355,16.862086,0)">
	<path
   style="fill:#e6e9ed"
   d="m 212.784,113.964 c -0.016,-0.07 -0.047,-0.133 -0.078,-0.203 -0.062,-0.188 -0.141,-0.367 -0.219,-0.547 -0.062,-0.156 -0.125,-0.305 -0.203,-0.461 -0.062,-0.148 -0.141,-0.297 -0.219,-0.445 -0.094,-0.172 -0.188,-0.336 -0.281,-0.492 -0.078,-0.125 -0.156,-0.258 -0.25,-0.383 -0.109,-0.164 -0.219,-0.32 -0.328,-0.477 -0.094,-0.125 -0.188,-0.242 -0.281,-0.359 -0.125,-0.148 -0.25,-0.289 -0.375,-0.43 -0.109,-0.125 -0.219,-0.242 -0.344,-0.359 -0.125,-0.125 -0.234,-0.242 -0.375,-0.359 -0.125,-0.125 -0.266,-0.242 -0.422,-0.359 -0.109,-0.094 -0.234,-0.195 -0.359,-0.289 -0.156,-0.117 -0.312,-0.219 -0.469,-0.328 -0.125,-0.086 -0.266,-0.172 -0.391,-0.25 -0.156,-0.094 -0.312,-0.188 -0.484,-0.273 -0.156,-0.078 -0.297,-0.156 -0.453,-0.234 -0.156,-0.07 -0.297,-0.133 -0.453,-0.195 -0.188,-0.078 -0.375,-0.156 -0.562,-0.219 -0.062,-0.023 -0.125,-0.055 -0.203,-0.078 -0.062,-0.023 -0.141,-0.039 -0.219,-0.062 -0.188,-0.062 -0.391,-0.117 -0.594,-0.164 -0.141,-0.039 -0.297,-0.07 -0.438,-0.102 -0.203,-0.039 -0.391,-0.07 -0.578,-0.102 -0.156,-0.023 -0.328,-0.047 -0.484,-0.062 -0.172,-0.016 -0.359,-0.023 -0.531,-0.039 -0.172,-0.008 -0.359,-0.016 -0.531,-0.016 -0.156,0 -0.328,0.008 -0.484,0.016 -0.203,0.008 -0.39,0.023 -0.578,0.039 -0.156,0.016 -0.297,0.039 -0.453,0.062 -0.203,0.031 -0.406,0.062 -0.594,0.102 -0.141,0.031 -0.281,0.062 -0.422,0.094 -0.203,0.055 -0.422,0.109 -0.625,0.172 -0.062,0.023 -0.141,0.039 -0.203,0.062 -0.078,0.023 -0.125,0.047 -0.203,0.07 -0.188,0.07 -0.375,0.148 -0.578,0.227 -0.141,0.062 -0.281,0.125 -0.422,0.195 -0.172,0.078 -0.328,0.156 -0.484,0.242 -0.156,0.086 -0.312,0.172 -0.453,0.258 -0.141,0.086 -0.281,0.172 -0.406,0.266 -0.156,0.102 -0.312,0.203 -0.469,0.32 -0.125,0.094 -0.25,0.195 -0.375,0.297 -0.141,0.117 -0.281,0.227 -0.406,0.352 -0.141,0.117 -0.25,0.242 -0.375,0.367 -0.125,0.109 -0.234,0.227 -0.344,0.352 -0.125,0.141 -0.25,0.289 -0.375,0.438 -0.094,0.109 -0.188,0.227 -0.281,0.344 -0.109,0.164 -0.219,0.328 -0.328,0.492 -0.093,0.125 -0.171,0.25 -0.25,0.375 -0.094,0.156 -0.188,0.328 -0.281,0.492 -0.078,0.148 -0.156,0.297 -0.219,0.445 -0.078,0.156 -0.141,0.305 -0.203,0.461 -0.078,0.18 -0.156,0.359 -0.219,0.547 -0.031,0.07 -0.062,0.133 -0.078,0.203 l -31.999,95.996 c -1.859,5.594 1.156,11.632 6.75,13.492 1.109,0.375 2.25,0.555 3.375,0.555 4.453,0 8.625,-2.828 10.109,-7.297 l 21.889,-65.637 21.875,65.637 c 1.484,4.469 5.656,7.297 10.109,7.297 1.125,0 2.266,-0.18 3.375,-0.555 5.594,-1.859 8.609,-7.898 6.75,-13.492 z"
   id="path16" />
	<path
   style="fill:#e6e9ed"
   d="m 394.113,209.96 -31.998,-95.996 c -0.031,-0.07 -0.062,-0.133 -0.094,-0.203 -0.062,-0.188 -0.125,-0.367 -0.188,-0.547 -0.062,-0.156 -0.156,-0.305 -0.219,-0.461 -0.062,-0.148 -0.156,-0.297 -0.219,-0.453 -0.094,-0.164 -0.188,-0.328 -0.281,-0.484 -0.094,-0.125 -0.156,-0.258 -0.25,-0.383 -0.094,-0.164 -0.219,-0.32 -0.344,-0.477 -0.094,-0.125 -0.188,-0.242 -0.281,-0.359 -0.125,-0.148 -0.219,-0.289 -0.344,-0.43 -0.125,-0.125 -0.25,-0.242 -0.375,-0.359 -0.094,-0.125 -0.219,-0.242 -0.344,-0.359 -0.156,-0.125 -0.281,-0.242 -0.438,-0.359 -0.125,-0.094 -0.25,-0.195 -0.375,-0.289 -0.125,-0.117 -0.312,-0.219 -0.469,-0.328 -0.125,-0.086 -0.25,-0.172 -0.375,-0.25 -0.156,-0.094 -0.312,-0.188 -0.5,-0.273 -0.125,-0.078 -0.281,-0.156 -0.438,-0.234 -0.156,-0.07 -0.312,-0.133 -0.469,-0.195 -0.188,-0.078 -0.344,-0.156 -0.531,-0.219 -0.094,-0.023 -0.156,-0.055 -0.219,-0.078 -0.063,-0.023 -0.155,-0.039 -0.218,-0.062 -0.188,-0.062 -0.406,-0.117 -0.594,-0.164 -0.156,-0.039 -0.312,-0.07 -0.438,-0.102 -0.188,-0.039 -0.375,-0.07 -0.594,-0.102 -0.156,-0.023 -0.312,-0.047 -0.469,-0.062 -0.188,-0.016 -0.375,-0.023 -0.531,-0.039 -0.188,-0.008 -0.344,-0.016 -0.531,-0.016 -0.156,0 -0.344,0.008 -0.5,0.016 -0.188,0.008 -0.375,0.023 -0.562,0.039 -0.156,0.016 -0.312,0.039 -0.469,0.062 -0.188,0.031 -0.375,0.062 -0.594,0.102 -0.125,0.031 -0.281,0.062 -0.406,0.094 -0.219,0.055 -0.406,0.109 -0.625,0.172 -0.062,0.023 -0.125,0.039 -0.219,0.062 -0.062,0.023 -0.125,0.055 -0.188,0.078 -0.188,0.062 -0.375,0.141 -0.562,0.219 -0.156,0.062 -0.312,0.125 -0.438,0.195 -0.156,0.078 -0.312,0.156 -0.469,0.242 -0.157,0.086 -0.312,0.172 -0.469,0.266 -0.156,0.078 -0.281,0.164 -0.406,0.25 -0.156,0.109 -0.312,0.211 -0.469,0.328 -0.125,0.094 -0.25,0.195 -0.375,0.297 -0.125,0.109 -0.281,0.227 -0.406,0.352 -0.125,0.117 -0.25,0.234 -0.375,0.359 -0.125,0.117 -0.25,0.234 -0.344,0.359 -0.125,0.141 -0.25,0.281 -0.375,0.43 -0.094,0.117 -0.188,0.234 -0.281,0.359 -0.125,0.156 -0.219,0.312 -0.344,0.477 -0.062,0.125 -0.156,0.258 -0.25,0.383 -0.094,0.156 -0.188,0.32 -0.25,0.484 -0.094,0.156 -0.156,0.305 -0.25,0.453 -0.062,0.156 -0.125,0.305 -0.188,0.461 -0.094,0.18 -0.156,0.359 -0.219,0.547 -0.031,0.07 -0.062,0.133 -0.094,0.203 l -31.999,95.996 c -1.844,5.594 1.156,11.632 6.749,13.492 1.125,0.375 2.25,0.555 3.375,0.555 4.469,0 8.625,-2.828 10.125,-7.297 l 21.875,-65.637 21.873,65.637 c 1.499,4.469 5.655,7.297 10.124,7.297 1.125,0 2.25,-0.18 3.375,-0.555 5.6,-1.861 8.631,-7.9 6.756,-13.494 z"
   id="path17" />
</g><g
         id="g20"
         transform="matrix(0.68386355,0,0,0.68386355,16.862086,0)">
	<path
   style="fill:#ffce54"
   d="M 351.991,128.003 H 202.675 c -5.906,0 -10.671,-4.773 -10.671,-10.664 0,-5.891 4.765,-10.664 10.671,-10.664 h 149.316 c 5.905,0 10.655,4.773 10.655,10.664 0,5.891 -4.75,10.664 -10.655,10.664 z"
   id="path18" />
	<path
   style="fill:#ffce54"
   d="m 202.675,255.998 c -23.53,0 -42.669,-19.14 -42.669,-42.663 h 85.324 c 0,23.523 -19.14,42.663 -42.655,42.663 z"
   id="path19" />
	<path
   style="fill:#ffce54"
   d="m 351.991,255.998 c -23.531,0 -42.655,-19.14 -42.655,-42.663 h 85.309 c -10e-4,23.523 -19.126,42.663 -42.654,42.663 z"
   id="path20" />
</g></g><text
       xml:space="preserve"
       style="font-style:italic;font-variant:normal;font-weight:bold;font-stretch:normal;font-size:22.1952px;line-height:0.8;font-family:Grayscale;-inkscape-font-specification:'Grayscale Bold Italic';text-align:start;writing-mode:lr-tb;direction:ltr;text-anchor:start;fill:#000000;stroke-width:6.15192e-08"
       x="48.801788"
       y="106.29594"
       id="text1"><tspan
         style="font-style:normal;font-variant:normal;font-weight:bold;font-stretch:normal;font-size:22.1952px;line-height:0.8;font-family:FreeSerif;-inkscape-font-specification:'FreeSerif Bold';stroke-width:6.15192e-08"
         x="48.801788"
         y="106.29594"
         id="tspan2">Project Law</tspan></text></g></svg>
